<?xml version="1.0" encoding="iso-8859-1"?>
<!-- Generator: Adobe Illustrator 19.0.0, SVG Export Plug-In . SVG Version: 6.00 Build 0)  -->
<svg version="1.1" id="Capa_1" xmlns="http://www.w3.org/2000/svg" xmlns:xlink="http://www.w3.org/1999/xlink" x="0px" y="0px"
	 viewBox="0 0 496 496" style="enable-background:new 0 0 496 496;" xml:space="preserve">
<g>
	<g>
		<g>
			<path d="M0,496h48V0H0V496z M16,16h16v464H16V16z"/>
			<path d="M280,32c-41.392,0-80.088,11.728-112.984,32H64v16h80.448c-11.776,9.52-22.544,20.248-32.096,32H64v16h36.504
				C77.464,162.344,64,203.624,64,248c0,44.376,13.464,85.656,36.504,120H64v16h48.352c9.552,11.752,20.312,22.48,32.096,32H64v16
				h103.016c32.896,20.272,71.592,32,112.984,32c119.104,0,216-96.896,216-216S399.104,32,280,32z M280,448
				c-110.28,0-200-89.72-200-200S169.72,48,280,48s200,89.72,200,200S390.28,448,280,448z"/>
			<path d="M432,177.536C432,132.576,395.424,96,350.464,96c-21.784,0-42.256,8.48-57.656,23.88L151.88,260.808
				C136.48,276.2,128,296.68,128,318.464c0,44.96,36.576,81.536,81.536,81.536c21.784,0,42.256-8.48,57.656-23.88l140.92-140.92
				C423.52,219.8,432,199.32,432,177.536z M255.88,364.808C243.504,377.184,227.048,384,209.536,384
				C173.4,384,144,354.6,144,318.464c0-17.504,6.816-33.968,19.192-46.344L216,219.312l82.344,82.344l11.312-11.312L227.312,208
				l76.808-76.808C316.496,118.816,332.952,112,350.464,112C386.6,112,416,141.4,416,177.536c0,17.504-6.816,33.968-19.192,46.344
				L255.88,364.808z"/>
			<rect x="320" y="128" width="16" height="16"/>
			<rect x="352" y="128" width="16" height="16"/>
			<rect x="288" y="160" width="16" height="16"/>
			<rect x="320" y="160" width="16" height="16"/>
			<rect x="352" y="160" width="16" height="16"/>
			<rect x="384" y="160" width="16" height="16"/>
			<rect x="256" y="192" width="16" height="16"/>
			<rect x="288" y="192" width="16" height="16"/>
			<rect x="320" y="192" width="16" height="16"/>
			<rect x="352" y="192" width="16" height="16"/>
			<rect x="384" y="192" width="16" height="16"/>
			<rect x="288" y="224" width="16" height="16"/>
			<rect x="320" y="224" width="16" height="16"/>
			<rect x="352" y="224" width="16" height="16"/>
			<rect x="320" y="256" width="16" height="16"/>
			<path d="M448,248c0,4.88-0.24,9.88-0.728,15.28l15.936,1.44C463.744,258.832,464,253.368,464,248H448z"/>
			<path d="M280,416v16c88.792,0,164.88-63.32,180.912-150.552l-15.736-2.888C430.536,358.192,361.072,416,280,416z"/>
			<path d="M280,80V64c-88.792,0-164.88,63.32-180.912,150.552l15.736,2.888C129.464,137.808,198.928,80,280,80z"/>
			<path d="M96,248h16c0-4.88,0.24-9.88,0.728-15.28l-15.936-1.44C96.256,237.168,96,242.632,96,248z"/>
		</g>
	</g>
</g>
<g>
</g>
<g>
</g>
<g>
</g>
<g>
</g>
<g>
</g>
<g>
</g>
<g>
</g>
<g>
</g>
<g>
</g>
<g>
</g>
<g>
</g>
<g>
</g>
<g>
</g>
<g>
</g>
<g>
</g>
</svg>
