<?xml version="1.0" encoding="iso-8859-1"?>
<!-- Generator: Adobe Illustrator 19.0.0, SVG Export Plug-In . SVG Version: 6.00 Build 0)  -->
<svg version="1.1" id="Capa_1" xmlns="http://www.w3.org/2000/svg" xmlns:xlink="http://www.w3.org/1999/xlink" x="0px" y="0px"
	 viewBox="0 0 496 496" style="enable-background:new 0 0 496 496;" xml:space="preserve">
<g>
	<g>
		<g>
			
				<rect x="121.443" y="63.537" transform="matrix(0.336 0.9419 -0.9419 0.336 152.8006 -73.6727)" width="14.417" height="15.993"/>
			<rect x="183.598" y="82.246" transform="matrix(0.9419 -0.3359 0.3359 0.9419 -72.1729 78.7675)" width="16" height="331.521"/>
			
				<rect x="247.353" y="416.505" transform="matrix(-0.336 -0.9419 0.9419 -0.336 -59.7328 806.8918)" width="14.416" height="15.993"/>
			<path d="M121.688,112.64c-3.992-11.2-12.056-20.104-22.704-25.064C88.512,82.688,76.816,82.232,66,86.24
				c-22.416,8.336-34.032,33.664-25.888,56.488c3.992,11.2,12.056,20.104,22.704,25.064c5.76,2.68,11.896,4.032,18.064,4.032
				c5.024,0,10.056-0.896,14.912-2.696C118.208,160.792,129.832,135.456,121.688,112.64z M69.576,153.28
				c-4.312-2.008-7.856-5.136-10.592-8.928l38.008-14.12l-5.576-15l-37.744,14.016c-0.656-12.072,6.256-23.688,17.904-28.016
				c3.032-1.128,6.184-1.688,9.328-1.688c3.856,0,7.712,0.848,11.312,2.528c6.744,3.144,11.856,8.808,14.408,15.944
				c5.208,14.616-2.152,30.816-16.408,36.112C83.464,156.632,76.12,156.344,69.576,153.28z"/>
			<path d="M172.528,255.192c-3.992-11.192-12.056-20.096-22.704-25.064c-10.464-4.88-22.168-5.344-32.984-1.336
				c-22.416,8.336-34.032,33.672-25.896,56.488c3.992,11.2,12.056,20.096,22.704,25.064c5.76,2.688,11.904,4.032,18.064,4.032
				c5.024,0,10.064-0.896,14.912-2.696C169.056,303.352,180.672,278.008,172.528,255.192z M120.416,295.84
				c-6.744-3.144-11.848-8.808-14.4-15.936c-5.208-14.616,2.152-30.816,16.4-36.112c3.04-1.128,6.184-1.688,9.336-1.688
				c3.856,0,7.704,0.84,11.312,2.528c4.312,2.008,7.856,5.136,10.592,8.928l-38,14.12l5.576,15l37.744-14.016
				c0.656,12.08-6.256,23.688-17.912,28.016C134.304,299.2,126.952,298.888,120.416,295.84z"/>
			<path d="M200.664,372.696c-10.448-4.88-22.152-5.344-32.976-1.336c-22.416,8.328-34.032,33.664-25.896,56.488
				c3.992,11.192,12.056,20.096,22.704,25.064c5.768,2.688,11.904,4.04,18.072,4.04c5.024,0,10.056-0.896,14.912-2.696
				c22.408-8.344,34.024-33.68,25.896-56.496C219.384,386.56,211.32,377.656,200.664,372.696z M191.904,439.24
				c-6.76,2.512-14.096,2.224-20.648-0.84c-4.312-2.008-7.856-5.136-10.584-8.928l38-14.12l-5.576-15l-37.736,14.016
				c-0.656-12.072,6.256-23.688,17.904-28.016c3.032-1.128,6.184-1.688,9.328-1.688c3.856,0,7.704,0.848,11.312,2.528
				c6.744,3.144,11.856,8.808,14.408,15.944C213.512,417.752,206.16,433.944,191.904,439.24z"/>
			<path d="M182.544,123.312c5.76,2.688,11.896,4.032,18.064,4.032c5.024,0,10.056-0.896,14.912-2.696
				c22.416-8.328,34.032-33.664,25.904-56.48h-0.008c-3.992-11.192-12.056-20.096-22.704-25.064
				c-10.472-4.872-22.168-5.352-32.984-1.336c-22.416,8.328-34.032,33.664-25.896,56.488
				C163.832,109.44,171.888,118.344,182.544,123.312z M191.304,56.76c3.04-1.128,6.184-1.688,9.336-1.688
				c3.856,0,7.704,0.84,11.312,2.528c6.744,3.144,11.856,8.808,14.408,15.936c5.2,14.616-2.16,30.816-16.416,36.112
				c-6.752,2.512-14.088,2.216-20.64-0.832c-4.312-2.008-7.856-5.136-10.592-8.936l38-14.112l-5.576-15L173.4,84.784
				C172.752,72.704,179.664,61.088,191.304,56.76z"/>
			<path d="M210.68,240.808c3.992,11.192,12.056,20.096,22.704,25.064c5.768,2.688,11.904,4.04,18.072,4.04
				c5.024,0,10.056-0.896,14.912-2.696c22.416-8.328,34.032-33.664,25.896-56.488c-3.992-11.2-12.056-20.096-22.704-25.064
				c-10.464-4.888-22.184-5.352-32.976-1.336C214.16,192.648,202.536,217.992,210.68,240.808z M251.488,197.632
				c3.856,0,7.712,0.848,11.312,2.528c4.312,2.008,7.848,5.136,10.584,8.928l-38,14.12l5.576,15l37.744-14.016
				c0.656,12.08-6.248,23.696-17.896,28.024c-6.768,2.512-14.096,2.216-20.648-0.84c-6.744-3.144-11.856-8.808-14.408-15.936
				c-5.208-14.616,2.152-30.816,16.416-36.112C245.184,198.192,248.344,197.632,251.488,197.632z"/>
			<path d="M320.408,328.216c-10.448-4.88-22.168-5.344-32.984-1.336c-22.424,8.336-34.04,33.672-25.896,56.488
				c3.992,11.2,12.056,20.104,22.704,25.064c5.768,2.688,11.904,4.032,18.064,4.032c5.024,0,10.064-0.896,14.92-2.696
				c22.416-8.336,34.032-33.664,25.888-56.488C339.12,342.088,331.056,333.184,320.408,328.216z M311.632,394.768
				c-6.76,2.52-14.104,2.216-20.64-0.832c-4.312-2.008-7.856-5.136-10.592-8.936l38.008-14.112l-5.576-15l-37.744,14.016
				c-0.656-12.072,6.256-23.688,17.904-28.024c3.04-1.128,6.184-1.688,9.336-1.688c3.856,0,7.712,0.84,11.32,2.528
				c6.736,3.144,11.84,8.808,14.384,15.936h0.008C333.248,373.272,325.888,389.472,311.632,394.768z"/>
			<path d="M473.536,73.864L287.552,2.336c-5.24-2.008-10.968-2.744-16.448-2.12l1.784,15.896c3-0.32,6.088,0.064,8.92,1.152
				L467.8,88.8c7.296,2.808,12.2,9.952,12.2,18.456c0,2.216-0.384,4.392-1.136,6.48l-96.192,265.936
				c-0.256-0.952-0.424-1.92-0.76-2.856L253.976,23.128C248.968,9.296,235.728,0,221.024,0c-4.32,0-8.544,0.784-12.584,2.336
				L22.472,73.864C9.032,79.032,0,92.176,0,107.256c0,4.064,0.704,8.072,2.088,11.92l127.936,353.696
				C135.032,486.704,148.272,496,162.976,496c4.32,0,8.544-0.784,12.584-2.336l185.968-71.528c2.6-1,4.968-2.376,7.2-3.928
				l-17.8,49.216c-3.512,9.736-15.104,15.008-24.744,11.304l-43.312-16.664l-5.752,14.928l43.32,16.664
				c4.04,1.56,8.264,2.344,12.584,2.344c14.704,0,27.944-9.296,32.952-23.128l127.936-353.704c1.384-3.832,2.088-7.84,2.088-12.592
				C496,92.176,486.968,79.032,473.536,73.864z M355.792,407.2l-185.968,71.528c-9.656,3.704-21.232-1.568-24.752-11.304
				L17.136,113.744c-0.752-2.088-1.136-4.272-1.136-7.168c0-7.824,4.904-14.968,12.208-17.776l185.968-71.528
				c2.2-0.848,4.496-1.272,6.848-1.272c7.992,0,15.184,5.048,17.904,12.568l127.936,353.68c0.752,2.096,1.136,4.28,1.136,7.176
				C368,397.248,363.096,404.392,355.792,407.2z"/>
			
				<rect x="359.351" y="64.276" transform="matrix(-0.9418 -0.3361 0.3361 -0.9418 689.2966 262.2762)" width="15.992" height="14.416"/>
			<rect x="337.07" y="89.254" transform="matrix(-0.9419 -0.3359 0.3359 -0.9419 625.1086 375.9635)" width="16" height="89.328"/>
			<path d="M455.888,142.72c8.144-22.816-3.48-48.152-25.888-56.488c-10.816-4-22.504-3.544-32.984,1.336
				c-10.648,4.968-18.712,13.864-22.704,25.064c-8.144,22.816,3.48,48.16,25.904,56.488c4.848,1.8,9.88,2.696,14.904,2.696
				c6.16,0,12.304-1.352,18.064-4.032C443.832,162.824,451.896,153.92,455.888,142.72z M405.792,154.12
				c-14.264-5.296-21.624-21.496-16.416-36.112c2.544-7.136,7.664-12.8,14.408-15.944c3.608-1.68,7.456-2.528,11.312-2.528
				c3.144,0,6.296,0.56,9.328,1.688c11.648,4.328,18.56,15.944,17.904,28.016l-37.744-14.016l-5.576,15l38.008,14.12
				c-2.736,3.8-6.28,6.92-10.592,8.928C419.872,156.344,412.52,156.632,405.792,154.12z"/>
			<rect x="360.809" y="262.541" transform="matrix(0.3486 -0.9373 0.9373 0.3486 -14.6088 522.7992)" width="16" height="18.737"/>
			<path d="M296,32c-6.672,0-13.136,1.344-19.2,4l6.4,14.664C287.24,48.896,291.544,48,296,48c17.648,0,32,14.352,32,32
				c0,2.208-0.304,4.352-0.736,6.464l-36.4-13.936l-5.72,14.944l35.064,13.424c-3.072,3.56-6.928,6.488-11.408,8.448L315.2,124
				c17.496-7.648,28.8-24.92,28.8-44C344,53.528,322.472,32,296,32z"/>
			<path d="M416,272c0-26.472-21.528-48-48-48c-6.672,0-13.136,1.344-19.2,4l6.408,14.664C359.24,240.896,363.544,240,368,240
				c17.648,0,32,14.352,32,32c0,15.16-10.768,28.344-25.592,31.36l3.184,15.68C399.84,314.52,416,294.736,416,272z"/>
		</g>
	</g>
</g>
<g>
</g>
<g>
</g>
<g>
</g>
<g>
</g>
<g>
</g>
<g>
</g>
<g>
</g>
<g>
</g>
<g>
</g>
<g>
</g>
<g>
</g>
<g>
</g>
<g>
</g>
<g>
</g>
<g>
</g>
</svg>
