<?xml version="1.0" encoding="iso-8859-1"?>
<!-- Generator: Adobe Illustrator 19.0.0, SVG Export Plug-In . SVG Version: 6.00 Build 0)  -->
<svg version="1.1" id="Capa_1" xmlns="http://www.w3.org/2000/svg" xmlns:xlink="http://www.w3.org/1999/xlink" x="0px" y="0px"
	 viewBox="0 0 496 496" style="enable-background:new 0 0 496 496;" xml:space="preserve">
<g>
	<g>
		<g>
			<path d="M420.224,112c-10.592,0-20.12,5.88-24.848,15.352l-47.792,95.592c-0.808,1.584-3.576,0.92-3.584-0.832l0.024-5.656
				l23.64-157.64c0.224-1.464,0.336-2.944,0.336-5.112C368,37.328,354.656,24,337.744,24c-14.2,0-26.208,10.168-28.552,24.192
				L281.32,215.448c-0.136,0.68-1.32,0.568-1.32-0.112V32c0-17.648-14.352-32-32-32s-32,14.352-32,32v183.336
				c0,0.696-1.192,0.784-1.304,0.152L186.904,48.736C184.512,34.4,172.168,24,157.064,24c-7.768,0-15.072,3.024-20.552,8.512
				c-5.496,5.496-8.512,12.8-8.504,20.552v1.464c0,1.336,0.088,2.68,0.264,4.008L152,232.704v4.872c0,2.152-3.24,3.136-4.44,1.344
				l-37.432-56.144C103.96,173.528,93.64,168,82.512,168h-1.328C62.888,168,48,182.888,48,201.192c0,5.856,1.56,11.64,4.512,16.72
				L160,402.168V496h192v-93.576l17.72-26.576c9.016-13.52,16.008-28.256,20.792-43.784l56.264-182.872
				c0.808-2.664,1.224-5.408,1.224-8.168v-1.248C448,124.464,435.536,112,420.224,112z M432,141.024c0,1.168-0.176,2.336-0.52,3.464
				L375.208,327.36c-4.32,14.048-10.648,27.368-18.808,39.608L336,397.576V480H176v-82.168L66.344,209.856
				c-1.528-2.632-2.344-5.632-2.344-8.664C64,191.712,71.712,184,81.184,184h1.328c5.76,0,11.112,2.864,14.304,7.656l37.432,56.136
				c3.424,5.144,9.152,8.208,15.328,8.208c10.16,0,18.424-8.264,18.424-18.424v-4.872c0-0.832-0.056-1.656-0.168-2.488
				L144.128,56.368C144.04,55.76,144,55.144,144,54.528v-1.464c0-3.488,1.352-6.768,3.824-9.24c2.472-2.472,5.744-3.824,9.728-3.824
				c6.768,0,12.472,4.784,13.568,11.36l27.792,166.76c1.336,8.048,8.248,13.88,16.424,13.88c9.184,0,16.664-7.472,16.664-16.664V32
				c0-8.824,7.176-16,16-16c8.824,0,16,7.176,16,16v183.336c0,9.192,7.48,16.664,16.664,16.664c8.176,0,15.088-5.856,16.432-13.92
				l27.872-167.256C326.016,44.552,331.392,40,338.248,40C345.832,40,352,46.152,352,54.384c0,0.664-0.048,1.336-0.16,2.024
				l-23.656,157.72c-0.12,0.872-0.184,1.736-0.184,2.608v5.376c0,9.864,8.024,17.888,17.888,17.888
				c6.816,0,12.936-3.784,15.992-9.88l47.808-95.608c2.008-4.016,6.048-6.512,10.536-6.512c6.496,0,11.776,5.288,11.776,11.776
				V141.024z"/>
			<path d="M192,264c-22.056,0-40,17.944-40,40c0,22.056,17.944,40,40,40c22.056,0,40-17.944,40-40C232,281.944,214.056,264,192,264
				z M192,328c-13.232,0-24-10.768-24-24c0-3.696,0.904-7.152,2.408-10.28l31.88,31.88C199.152,327.096,195.696,328,192,328z
				 M213.592,314.28l-31.88-31.88c3.136-1.496,6.592-2.4,10.288-2.4c13.232,0,24,10.768,24,24
				C216,307.696,215.096,311.152,213.592,314.28z"/>
			<path d="M304,240c-22.056,0-40,17.944-40,40c0,22.056,17.944,40,40,40c22.056,0,40-17.944,40-40C344,257.944,326.056,240,304,240
				z M304,304c-13.232,0-24-10.768-24-24c0-3.696,0.904-7.152,2.408-10.28l31.88,31.88C311.152,303.096,307.696,304,304,304z
				 M325.592,290.28l-31.88-31.88c3.136-1.496,6.592-2.4,10.288-2.4c13.232,0,24,10.768,24,24
				C328,283.696,327.096,287.152,325.592,290.28z"/>
			<path d="M296,328h-48c-13.232,0-24,10.768-24,24s10.768,24,24,24h48c13.232,0,24-10.768,24-24S309.232,328,296,328z M264,360h-16
				c-4.416,0-8-3.584-8-8c0-4.416,3.584-8,8-8h16V360z M296,360h-16v-16h16c4.416,0,8,3.584,8,8C304,356.416,300.416,360,296,360z"
				/>
		</g>
	</g>
</g>
<g>
</g>
<g>
</g>
<g>
</g>
<g>
</g>
<g>
</g>
<g>
</g>
<g>
</g>
<g>
</g>
<g>
</g>
<g>
</g>
<g>
</g>
<g>
</g>
<g>
</g>
<g>
</g>
<g>
</g>
</svg>
